<?xml version="1.0" encoding="UTF-8"?>
<!-- Created with Grafika (https://www.grafika.cc/) -->
<svg xmlns="http://www.w3.org/2000/svg" xmlns:svg="http://www.w3.org/2000/svg" xmlns:xlink="http://www.w3.org/1999/xlink" width="222" height="102" viewBox="0 0 222 102" preserveAspectRatio="xMidYMid meet">
	<g id="Group 69">
		<g id="Group 1" transform="matrix(-1, -1.23223842228929e-16, 3.25817513764678e-16, -1, 167.848151012909, -331.828824741587)">
			<g id="Rectangle" transform="matrix(-1, 0, 0, -1, -3.15184898709089, -382.828824741587)">
				<path d="M-50 -50 L50 -50 L50 50 L-50 50 L-50 -50 Z" fill="#050505" fill-rule="evenodd" />
				<path d="M-51 -50 L-51 50 C-51 50.55 -50.55 51 -50 51 L50 51 C50.55 51 51 50.55 51 50 L51 -50 C51 -50.55 50.55 -51 50 -51 L-50 -51 C-50.55 -51 -51 -50.55 -51 -50 Z M50 -50 L-50 -50 L-50 50 L50 50 L50 -50 Z" fill="#0A0A0A" fill-rule="evenodd" />
			</g>
			<g id="Group">
				<rect transform="matrix(-1, 0, 0, -1, 36.8481510129091, -422.828824741586)" x="-10" y="-10" width="20" height="20" id="Rectangle 1" style="fill:#FAFAFA;" />
				<rect transform="matrix(-1, 0, 0, -1, 36.8481510129091, -342.828824741586)" x="-10" y="-10" width="20" height="20" id="Rectangle 356" style="fill:#FAFAFA;" />
				<rect transform="matrix(-1, 0, 0, -1, 36.8481510129091, -382.828824741586)" x="-10" y="-10" width="20" height="20" id="Rectangle 357" style="fill:#FAFAFA;" />
				<rect transform="matrix(-1, 0, 0, -1, -43.1518489870909, -422.828824741586)" x="-10" y="-10" width="20" height="20" id="Rectangle 358" style="fill:#FAFAFA;" />
				<rect transform="matrix(-1, 0, 0, -1, -43.1518489870909, -342.828824741586)" x="-10" y="-10" width="20" height="20" id="Rectangle 359" style="fill:#FAFAFA;" />
				<rect transform="matrix(-1, 0, 0, -1, -43.1518489870909, -382.828824741586)" x="-10" y="-10" width="20" height="20" id="Rectangle 360" style="fill:#FAFAFA;" />
				<rect transform="matrix(-1, 0, 0, -1, -3.15184898709089, -422.828824741586)" x="-10" y="-10" width="20" height="20" id="Rectangle 361" style="fill:#FAFAFA;" />
				<rect transform="matrix(-1, 0, 0, -1, -3.15184898709089, -342.828824741586)" x="-10" y="-10" width="20" height="20" id="Rectangle 362" style="fill:#FAFAFA;" />
				<rect transform="matrix(-1, 0, 0, -1, -3.15184898709089, -382.828824741586)" x="-10" y="-10" width="20" height="20" id="Rectangle 363" style="fill:#FAFAFA;" />
				<rect transform="matrix(-1, 0, 0, -1, 16.8481510129091, -402.828824741586)" x="-10" y="-10" width="20" height="20" id="Rectangle 364" style="fill:#FAFAFA;" />
				<rect transform="matrix(-1, 0, 0, -1, 16.8481510129091, -362.828824741586)" x="-10" y="-10" width="20" height="20" id="Rectangle 365" style="fill:#FAFAFA;" />
				<rect transform="matrix(-1, 0, 0, -1, -23.1518489870909, -402.828824741586)" x="-10" y="-10" width="20" height="20" id="Rectangle 366" style="fill:#FAFAFA;" />
				<rect transform="matrix(-1, 0, 0, -1, -23.1518489870909, -362.828824741586)" x="-10" y="-10" width="20" height="20" id="Rectangle 367" style="fill:#FAFAFA;" />
			</g>
		</g>
		<g id="Group 7">
			<g id="Rectangle 43">
				<path d="M1 1 L101 1 L101 101 L1 101 L1 1 Z" fill="#FAFAFA" fill-rule="evenodd" />
				<path d="M0 1 L0 101 C0 101.55 0.45 102 1 102 L101 102 C101.55 102 102 101.55 102 101 L102 1 C102 0.45 101.55 0 101 0 L1 0 C0.45 0 0 0.45 0 1 Z M101 1 L1 1 L1 101 L101 101 L101 1 Z" fill="#0A0A0A" fill-rule="evenodd" />
			</g>
			<g id="Group 6">
				<rect x="1" y="81" width="20" height="20" id="Rectangle 44" style="fill:#050505;" />
				<rect x="1" y="1" width="20" height="20" id="Rectangle 45" style="fill:#050505;" />
				<rect x="1" y="41" width="20" height="20" id="Rectangle 46" style="fill:#050505;" />
				<rect x="81" y="81" width="20" height="20" id="Rectangle 47" style="fill:#050505;" />
				<rect x="81" y="1" width="20" height="20" id="Rectangle 48" style="fill:#050505;" />
				<rect x="81" y="41" width="20" height="20" id="Rectangle 49" style="fill:#050505;" />
				<rect x="41" y="81" width="20" height="20" id="Rectangle 50" style="fill:#050505;" />
				<rect x="41" y="1" width="20" height="20" id="Rectangle 51" style="fill:#050505;" />
				<rect x="41" y="41" width="20" height="20" id="Rectangle 52" style="fill:#050505;" />
				<rect x="21" y="61" width="20" height="20" id="Rectangle 53" style="fill:#050505;" />
				<rect x="21" y="21" width="20" height="20" id="Rectangle 54" style="fill:#050505;" />
				<rect x="61" y="61" width="20" height="20" id="Rectangle 55" style="fill:#050505;" />
				<rect x="61" y="21" width="20" height="20" id="Rectangle 56" style="fill:#050505;" />
			</g>
		</g>
		<g id="Group 9">
			<g id="Group 8">
				<g id="Rectangle 57">
					<path d="M41 21 L21 21 L21 41 L41 41 L41 21 Z M24 38 L24 24 L38 24 L38 38 L24 38 Z" fill="#70C1B3" fill-rule="evenodd" />
				</g>
				<g id="Rectangle 58">
					<path d="M21 1 L1 1 L1 21 L21 21 L21 1 Z M4 18 L4 4 L18 4 L18 18 L4 18 Z" fill="#70C1B3" fill-rule="evenodd" />
				</g>
				<g id="Rectangle 59">
					<path d="M81 21 L61 21 L61 41 L81 41 L81 21 Z M64 38 L64 24 L78 24 L78 38 L64 38 Z" fill="#70C1B3" fill-rule="evenodd" />
				</g>
				<g id="Rectangle 60">
					<path d="M101 1 L81 1 L81 21 L101 21 L101 1 Z M84 18 L84 4 L98 4 L98 18 L84 18 Z" fill="#70C1B3" fill-rule="evenodd" />
				</g>
				<g id="Rectangle 61">
					<path d="M41 61 L21 61 L21 81 L41 81 L41 61 Z M24 78 L24 64 L38 64 L38 78 L24 78 Z" fill="#70C1B3" fill-rule="evenodd" />
				</g>
				<g id="Rectangle 62">
					<path d="M21 81 L1 81 L1 101 L21 101 L21 81 Z M4 98 L4 84 L18 84 L18 98 L4 98 Z" fill="#70C1B3" fill-rule="evenodd" />
				</g>
				<g id="Rectangle 63">
					<path d="M81 61 L61 61 L61 81 L81 81 L81 61 Z M64 78 L64 64 L78 64 L78 78 L64 78 Z" fill="#70C1B3" fill-rule="evenodd" />
				</g>
				<g id="Rectangle 64">
					<path d="M101 81 L81 81 L81 101 L101 101 L101 81 Z M84 98 L84 84 L98 84 L98 98 L84 98 Z" fill="#70C1B3" fill-rule="evenodd" />
				</g>
			</g>
		</g>
		<g id="Group 40">
			<g id="Group 39">
				<g id="Rectangle 213">
					<path d="M161 21 L141 21 L141 41 L161 41 L161 21 Z M144 38 L144 24 L158 24 L158 38 L144 38 Z" fill="#F25F5C" fill-rule="evenodd" />
				</g>
				<g id="Rectangle 214">
					<path d="M141 1 L121 1 L121 21 L141 21 L141 1 Z M124 18 L124 4 L138 4 L138 18 L124 18 Z" fill="#F25F5C" fill-rule="evenodd" />
				</g>
				<g id="Rectangle 215">
					<path d="M201 21 L181 21 L181 41 L201 41 L201 21 Z M184 38 L184 24 L198 24 L198 38 L184 38 Z" fill="#F25F5C" fill-rule="evenodd" />
				</g>
				<g id="Rectangle 216">
					<path d="M221 1 L201 1 L201 21 L221 21 L221 1 Z M204 18 L204 4 L218 4 L218 18 L204 18 Z" fill="#F25F5C" fill-rule="evenodd" />
				</g>
				<g id="Rectangle 217">
					<path d="M161 61 L141 61 L141 81 L161 81 L161 61 Z M144 78 L144 64 L158 64 L158 78 L144 78 Z" fill="#F25F5C" fill-rule="evenodd" />
				</g>
				<g id="Rectangle 218">
					<path d="M141 81 L121 81 L121 101 L141 101 L141 81 Z M124 98 L124 84 L138 84 L138 98 L124 98 Z" fill="#F25F5C" fill-rule="evenodd" />
				</g>
				<g id="Rectangle 219">
					<path d="M201 61 L181 61 L181 81 L201 81 L201 61 Z M184 78 L184 64 L198 64 L198 78 L184 78 Z" fill="#F25F5C" fill-rule="evenodd" />
				</g>
				<g id="Rectangle 220">
					<path d="M221 81 L201 81 L201 101 L221 101 L221 81 Z M204 98 L204 84 L218 84 L218 98 L204 98 Z" fill="#F25F5C" fill-rule="evenodd" />
				</g>
			</g>
		</g>
	</g>
</svg>