<?xml version="1.0" encoding="UTF-8"?>
<!-- Created with Grafika (https://www.grafika.cc/) -->
<svg xmlns="http://www.w3.org/2000/svg" xmlns:svg="http://www.w3.org/2000/svg" xmlns:xlink="http://www.w3.org/1999/xlink" width="222" height="102" viewBox="0 0 222 102" preserveAspectRatio="xMidYMid meet">
	<g id="Group 71">
		<g id="Group 47" transform="matrix(-1, -1.23223842228929e-16, 3.25817513764678e-16, -1, 167.848151012909, -451.828824741587)">
			<g id="Rectangle 382" transform="matrix(-1, 0, 0, -1, -3.15184898709091, -502.828824741586)">
				<path d="M-50 -50 L50 -50 L50 50 L-50 50 L-50 -50 Z" fill="#050505" fill-rule="evenodd" />
				<path d="M-51 -50 L-51 50 C-51 50.55 -50.55 51 -50 51 L50 51 C50.55 51 51 50.55 51 50 L51 -50 C51 -50.55 50.55 -51 50 -51 L-50 -51 C-50.55 -51 -51 -50.55 -51 -50 Z M50 -50 L-50 -50 L-50 50 L50 50 L50 -50 Z" fill="#0A0A0A" fill-rule="evenodd" />
			</g>
			<g id="Group 46">
				<rect transform="matrix(-1, 0, 0, -1, 36.8481510129091, -542.828824741586)" x="-10" y="-10" width="20" height="20" id="Rectangle 383" style="fill:#FAFAFA;" />
				<rect transform="matrix(-1, 0, 0, -1, 36.8481510129091, -462.828824741586)" x="-10" y="-10" width="20" height="20" id="Rectangle 384" style="fill:#FAFAFA;" />
				<rect transform="matrix(-1, 0, 0, -1, 36.8481510129091, -502.828824741586)" x="-10" y="-10" width="20" height="20" id="Rectangle 385" style="fill:#FAFAFA;" />
				<rect transform="matrix(-1, 0, 0, -1, -43.1518489870909, -542.828824741586)" x="-10" y="-10" width="20" height="20" id="Rectangle 386" style="fill:#FAFAFA;" />
				<rect transform="matrix(-1, 0, 0, -1, -43.1518489870909, -462.828824741586)" x="-10" y="-10" width="20" height="20" id="Rectangle 387" style="fill:#FAFAFA;" />
				<rect transform="matrix(-1, 0, 0, -1, -43.1518489870909, -502.828824741586)" x="-10" y="-10" width="20" height="20" id="Rectangle 388" style="fill:#FAFAFA;" />
				<rect transform="matrix(-1, 0, 0, -1, -3.15184898709091, -542.828824741586)" x="-10" y="-10" width="20" height="20" id="Rectangle 389" style="fill:#FAFAFA;" />
				<rect transform="matrix(-1, 0, 0, -1, -3.15184898709091, -462.828824741586)" x="-10" y="-10" width="20" height="20" id="Rectangle 390" style="fill:#FAFAFA;" />
				<rect transform="matrix(-1, 0, 0, -1, -3.15184898709091, -502.828824741586)" x="-10" y="-10" width="20" height="20" id="Rectangle 391" style="fill:#FAFAFA;" />
				<rect transform="matrix(-1, 0, 0, -1, 16.8481510129091, -522.828824741586)" x="-10" y="-10" width="20" height="20" id="Rectangle 392" style="fill:#FAFAFA;" />
				<rect transform="matrix(-1, 0, 0, -1, 16.8481510129091, -482.828824741586)" x="-10" y="-10" width="20" height="20" id="Rectangle 393" style="fill:#FAFAFA;" />
				<rect transform="matrix(-1, 0, 0, -1, -23.1518489870909, -522.828824741586)" x="-10" y="-10" width="20" height="20" id="Rectangle 394" style="fill:#FAFAFA;" />
				<rect transform="matrix(-1, 0, 0, -1, -23.1518489870909, -482.828824741586)" x="-10" y="-10" width="20" height="20" id="Rectangle 395" style="fill:#FAFAFA;" />
			</g>
		</g>
		<g id="Group 22">
			<g id="Rectangle 111">
				<path d="M1 1 L101 1 L101 101 L1 101 L1 1 Z" fill="#FAFAFA" fill-rule="evenodd" />
				<path d="M0 1 L0 101 C0 101.55 0.45 102 1 102 L101 102 C101.55 102 102 101.55 102 101 L102 1 C102 0.45 101.55 0 101 0 L1 0 C0.45 0 0 0.45 0 1 Z M101 1 L1 1 L1 101 L101 101 L101 1 Z" fill="#0A0A0A" fill-rule="evenodd" />
			</g>
			<g id="Group 21">
				<rect x="1" y="81" width="20" height="20" id="Rectangle 112" style="fill:#050505;" />
				<rect x="1" y="1" width="20" height="20" id="Rectangle 113" style="fill:#050505;" />
				<rect x="1" y="41" width="20" height="20" id="Rectangle 114" style="fill:#050505;" />
				<rect x="81" y="81" width="20" height="20" id="Rectangle 115" style="fill:#050505;" />
				<rect x="81" y="1" width="20" height="20" id="Rectangle 116" style="fill:#050505;" />
				<rect x="81" y="41" width="20" height="20" id="Rectangle 117" style="fill:#050505;" />
				<rect x="41" y="81" width="20" height="20" id="Rectangle 118" style="fill:#050505;" />
				<rect x="41" y="1" width="20" height="20" id="Rectangle 119" style="fill:#050505;" />
				<rect x="41" y="41" width="20" height="20" id="Rectangle 120" style="fill:#050505;" />
				<rect x="21" y="61" width="20" height="20" id="Rectangle 121" style="fill:#050505;" />
				<rect x="21" y="21" width="20" height="20" id="Rectangle 122" style="fill:#050505;" />
				<rect x="61" y="61" width="20" height="20" id="Rectangle 123" style="fill:#050505;" />
				<rect x="61" y="21" width="20" height="20" id="Rectangle 124" style="fill:#050505;" />
			</g>
		</g>
		<g id="Group 16">
			<g id="Rectangle 95">
				<path d="M61 21 L41 21 L41 41 L61 41 L61 21 Z M44 38 L44 24 L58 24 L58 38 L44 38 Z" fill="#70C1B3" fill-rule="evenodd" />
			</g>
			<g id="Rectangle 97">
				<path d="M81 41 L61 41 L61 61 L81 61 L81 41 Z M64 58 L64 44 L78 44 L78 58 L64 58 Z" fill="#70C1B3" fill-rule="evenodd" />
			</g>
			<g id="Rectangle 99">
				<path d="M41 41 L21 41 L21 61 L41 61 L41 41 Z M24 58 L24 44 L38 44 L38 58 L24 58 Z" fill="#70C1B3" fill-rule="evenodd" />
			</g>
			<g id="Rectangle 101">
				<path d="M61 61 L41 61 L41 81 L61 81 L61 61 Z M44 78 L44 64 L58 64 L58 78 L44 78 Z" fill="#70C1B3" fill-rule="evenodd" />
			</g>
			<g id="Rectangle 103">
				<path d="M41 21 L21 21 L21 41 L41 41 L41 21 Z M24 38 L24 24 L38 24 L38 38 L24 38 Z" fill="#70C1B3" fill-rule="evenodd" />
			</g>
			<g id="Rectangle 105">
				<path d="M81 21 L61 21 L61 41 L81 41 L81 21 Z M64 38 L64 24 L78 24 L78 38 L64 38 Z" fill="#70C1B3" fill-rule="evenodd" />
			</g>
			<g id="Rectangle 107">
				<path d="M41 61 L21 61 L21 81 L41 81 L41 61 Z M24 78 L24 64 L38 64 L38 78 L24 78 Z" fill="#70C1B3" fill-rule="evenodd" />
			</g>
			<g id="Rectangle 109">
				<path d="M81 61 L61 61 L61 81 L81 81 L81 61 Z M64 78 L64 64 L78 64 L78 78 L64 78 Z" fill="#70C1B3" fill-rule="evenodd" />
			</g>
		</g>
		<g id="Group 48">
			<g id="Rectangle 265">
				<path d="M181 21 L161 21 L161 41 L181 41 L181 21 Z M164 38 L164 24 L178 24 L178 38 L164 38 Z" fill="#F25F5C" fill-rule="evenodd" />
			</g>
			<g id="Rectangle 266">
				<path d="M201 41 L181 41 L181 61 L201 61 L201 41 Z M184 58 L184 44 L198 44 L198 58 L184 58 Z" fill="#F25F5C" fill-rule="evenodd" />
			</g>
			<g id="Rectangle 267">
				<path d="M161 41 L141 41 L141 61 L161 61 L161 41 Z M144 58 L144 44 L158 44 L158 58 L144 58 Z" fill="#F25F5C" fill-rule="evenodd" />
			</g>
			<g id="Rectangle 268">
				<path d="M181 61 L161 61 L161 81 L181 81 L181 61 Z M164 78 L164 64 L178 64 L178 78 L164 78 Z" fill="#F25F5C" fill-rule="evenodd" />
			</g>
			<g id="Rectangle 269">
				<path d="M161 21 L141 21 L141 41 L161 41 L161 21 Z M144 38 L144 24 L158 24 L158 38 L144 38 Z" fill="#F25F5C" fill-rule="evenodd" />
			</g>
			<g id="Rectangle 270">
				<path d="M201 21 L181 21 L181 41 L201 41 L201 21 Z M184 38 L184 24 L198 24 L198 38 L184 38 Z" fill="#F25F5C" fill-rule="evenodd" />
			</g>
			<g id="Rectangle 271">
				<path d="M161 61 L141 61 L141 81 L161 81 L161 61 Z M144 78 L144 64 L158 64 L158 78 L144 78 Z" fill="#F25F5C" fill-rule="evenodd" />
			</g>
			<g id="Rectangle 272">
				<path d="M201 61 L181 61 L181 81 L201 81 L201 61 Z M184 78 L184 64 L198 64 L198 78 L184 78 Z" fill="#F25F5C" fill-rule="evenodd" />
			</g>
		</g>
	</g>
</svg>