<?xml version="1.0" encoding="UTF-8"?>
<!-- Created with Grafika (https://www.grafika.cc/) -->
<svg xmlns="http://www.w3.org/2000/svg" xmlns:svg="http://www.w3.org/2000/svg" xmlns:xlink="http://www.w3.org/1999/xlink" width="222" height="102" viewBox="0 0 222 102" preserveAspectRatio="xMidYMid meet">
	<g id="Group 68">
		<g id="Group 24" transform="matrix(-1, -1.23223842228929e-16, 3.25817513764678e-16, -1, 107.848151012909, -271.828824741587)">
			<g id="Rectangle 342" transform="matrix(-1, 0, 0, -1, 56.8481510129091, -322.828824741587)">
				<path d="M-50 -50 L50 -50 L50 50 L-50 50 L-50 -50 Z" fill="#050505" fill-rule="evenodd" />
				<path d="M-51 -50 L-51 50 C-51 50.55 -50.55 51 -50 51 L50 51 C50.55 51 51 50.55 51 50 L51 -50 C51 -50.55 50.55 -51 50 -51 L-50 -51 C-50.55 -51 -51 -50.55 -51 -50 Z M50 -50 L-50 -50 L-50 50 L50 50 L50 -50 Z" fill="#0A0A0A" fill-rule="evenodd" />
			</g>
			<g id="Group 13">
				<rect transform="matrix(-1, 0, 0, -1, 96.8481510129091, -362.828824741587)" x="-10" y="-10" width="20" height="20" id="Rectangle 343" style="fill:#FAFAFA;" />
				<rect transform="matrix(-1, 0, 0, -1, 96.8481510129091, -282.828824741587)" x="-10" y="-10" width="20" height="20" id="Rectangle 344" style="fill:#FAFAFA;" />
				<rect transform="matrix(-1, 0, 0, -1, 96.8481510129091, -322.828824741587)" x="-10" y="-10" width="20" height="20" id="Rectangle 345" style="fill:#FAFAFA;" />
				<rect transform="matrix(-1, 0, 0, -1, 16.8481510129091, -362.828824741587)" x="-10" y="-10" width="20" height="20" id="Rectangle 346" style="fill:#FAFAFA;" />
				<rect transform="matrix(-1, 0, 0, -1, 16.8481510129091, -282.828824741587)" x="-10" y="-10" width="20" height="20" id="Rectangle 347" style="fill:#FAFAFA;" />
				<rect transform="matrix(-1, 0, 0, -1, 16.8481510129091, -322.828824741587)" x="-10" y="-10" width="20" height="20" id="Rectangle 348" style="fill:#FAFAFA;" />
				<rect transform="matrix(-1, 0, 0, -1, 56.8481510129091, -362.828824741587)" x="-10" y="-10" width="20" height="20" id="Rectangle 349" style="fill:#FAFAFA;" />
				<rect transform="matrix(-1, 0, 0, -1, 56.8481510129091, -282.828824741587)" x="-10" y="-10" width="20" height="20" id="Rectangle 350" style="fill:#FAFAFA;" />
				<rect transform="matrix(-1, 0, 0, -1, 56.8481510129091, -322.828824741587)" x="-10" y="-10" width="20" height="20" id="Rectangle 351" style="fill:#FAFAFA;" />
				<rect transform="matrix(-1, 0, 0, -1, 76.8481510129091, -342.828824741587)" x="-10" y="-10" width="20" height="20" id="Rectangle 352" style="fill:#FAFAFA;" />
				<rect transform="matrix(-1, 0, 0, -1, 76.8481510129091, -302.828824741587)" x="-10" y="-10" width="20" height="20" id="Rectangle 353" style="fill:#FAFAFA;" />
				<rect transform="matrix(-1, 0, 0, -1, 36.8481510129091, -342.828824741587)" x="-10" y="-10" width="20" height="20" id="Rectangle 354" style="fill:#FAFAFA;" />
				<rect transform="matrix(-1, 0, 0, -1, 36.8481510129091, -302.828824741587)" x="-10" y="-10" width="20" height="20" id="Rectangle 355" style="fill:#FAFAFA;" />
			</g>
		</g>
		<g id="Rectangle 164">
			<path d="M61 61 L41 61 L41 81 L61 81 L61 61 Z M44 78 L44 64 L58 64 L58 78 L44 78 Z" fill="#70C1B3" fill-rule="evenodd" />
		</g>
		<g id="Group 55" transform="matrix(-1, 0, 0, -1, 167.848151012909, -271.828824741587)">
			<g id="Rectangle 295" transform="matrix(-1, 0, 0, -1, -3.1518489870909, -322.828824741587)">
				<path d="M-50 -50 L50 -50 L50 50 L-50 50 L-50 -50 Z" fill="#FAFAFA" fill-rule="evenodd" />
				<path d="M-51 -50 L-51 50 C-51 50.55 -50.55 51 -50 51 L50 51 C50.55 51 51 50.55 51 50 L51 -50 C51 -50.55 50.55 -51 50 -51 L-50 -51 C-50.55 -51 -51 -50.55 -51 -50 Z M50 -50 L-50 -50 L-50 50 L50 50 L50 -50 Z" fill="#0A0A0A" fill-rule="evenodd" />
			</g>
			<g id="Group 54">
				<rect transform="matrix(-1, 0, 0, -1, 36.8481510129091, -362.828824741586)" x="-10" y="-10" width="20" height="20" id="Rectangle 296" style="fill:#050505;" />
				<rect transform="matrix(-1, 0, 0, -1, 36.8481510129091, -282.828824741586)" x="-10" y="-10" width="20" height="20" id="Rectangle 297" style="fill:#050505;" />
				<rect transform="matrix(-1, 0, 0, -1, 36.8481510129091, -322.828824741586)" x="-10" y="-10" width="20" height="20" id="Rectangle 298" style="fill:#050505;" />
				<rect transform="matrix(-1, 0, 0, -1, -43.1518489870909, -362.828824741586)" x="-10" y="-10" width="20" height="20" id="Rectangle 299" style="fill:#050505;" />
				<rect transform="matrix(-1, 0, 0, -1, -43.1518489870909, -282.828824741586)" x="-10" y="-10" width="20" height="20" id="Rectangle 300" style="fill:#050505;" />
				<rect transform="matrix(-1, 0, 0, -1, -43.1518489870909, -322.828824741586)" x="-10" y="-10" width="20" height="20" id="Rectangle 301" style="fill:#050505;" />
				<rect transform="matrix(-1, 0, 0, -1, -3.1518489870909, -362.828824741586)" x="-10" y="-10" width="20" height="20" id="Rectangle 302" style="fill:#050505;" />
				<rect transform="matrix(-1, 0, 0, -1, -3.1518489870909, -282.828824741586)" x="-10" y="-10" width="20" height="20" id="Rectangle 303" style="fill:#050505;" />
				<rect transform="matrix(-1, 0, 0, -1, -3.1518489870909, -322.828824741586)" x="-10" y="-10" width="20" height="20" id="Rectangle 304" style="fill:#050505;" />
				<rect transform="matrix(-1, 0, 0, -1, 16.8481510129091, -342.828824741586)" x="-10" y="-10" width="20" height="20" id="Rectangle 305" style="fill:#050505;" />
				<rect transform="matrix(-1, 0, 0, -1, 16.8481510129091, -302.828824741586)" x="-10" y="-10" width="20" height="20" id="Rectangle 306" style="fill:#050505;" />
				<rect transform="matrix(-1, 0, 0, -1, -23.1518489870909, -342.828824741586)" x="-10" y="-10" width="20" height="20" id="Rectangle 307" style="fill:#050505;" />
				<rect transform="matrix(-1, 0, 0, -1, -23.1518489870909, -302.828824741586)" x="-10" y="-10" width="20" height="20" id="Rectangle 308" style="fill:#050505;" />
			</g>
		</g>
		<g id="Rectangle 309">
			<path d="M161 61 L141 61 L141 81 L161 81 L161 61 Z M144 78 L144 64 L158 64 L158 78 L144 78 Z" fill="#F25F5C" fill-rule="evenodd" />
		</g>
		<g id="Rectangle 310">
			<path d="M201 61 L181 61 L181 81 L201 81 L201 61 Z M184 78 L184 64 L198 64 L198 78 L184 78 Z" fill="#F25F5C" fill-rule="evenodd" />
		</g>
	</g>
</svg>